# xmcd
#
# Track frame offsets:
# 182
# 17827
# 48672
# 67505
#
# Disc length: 1196 seconds
#
#
# Revision: 0
# Processed by: cddbd v1.5.1PL0 Copyright (c) Steve Scherf et al.
# Submitted via: FreeRIP 2.942 
#
DISCID=2904aa04
DTITLE=Peter Andre - Only One
DYEAR=1900
DGENRE=
TTITLE0=Only One
TTITLE1=Only One (Rapino Brothers Dub Mix)
TTITLE2=Let's Get On
TTITLE3=Exclusive Interview
EXTD=
EXTT0=
EXTT1=
EXTT2=
EXTT3=
PLAYORDER=
